HIERARCHY
ROOT Hips
{
  OFFSET -50.1186 85.116 -81.9421
  CHANNELS 6 Xposition Yposition Zposition Zrotation Xrotation Yrotation
  JOINT Spine
  {
    OFFSET 0 10 0
    CHANNELS 6 Xposition Yposition Zposition Zrotation Xrotation Yrotation
    JOINT Neck
    {
      OFFSET 0 30 0
      CHANNELS 6 Xposition Yposition Zposition Zrotation Xrotation Yrotation
      JOINT Head
      {
        OFFSET 0 8 0
        CHANNELS 6 Xposition Yposition Zposition Zrotation Xrotation Yrotation
        End Site
        {
          OFFSET 0 10 0
        }
      }
    }
    JOINT LeftArm
    {
      OFFSET 15 30 0
      CHANNELS 6 Xposition Yposition Zposition Zrotation Xrotation Yrotation
      JOINT LeftForeArm
      {
        OFFSET 25 0 0
        CHANNELS 6 Xposition Yposition Zposition Zrotation Xrotation Yrotation
        JOINT LeftHand
        {
          OFFSET 25 0 0
          CHANNELS 6 Xposition Yposition Zposition Zrotation Xrotation Yrotation
          End Site
          {
            OFFSET 10 0 0
          }
        }
      }
    }
    JOINT RightArm
    {
      OFFSET -15 30 0
      CHANNELS 6 Xposition Yposition Zposition Zrotation Xrotation Yrotation
      JOINT RightForeArm
      {
        OFFSET -25 0 0
        CHANNELS 6 Xposition Yposition Zposition Zrotation Xrotation Yrotation
        JOINT RightHand
        {
          OFFSET -25 0 0
          CHANNELS 6 Xposition Yposition Zposition Zrotation Xrotation Yrotation
          End Site
          {
            OFFSET -10 0 0
          }
        }
      }
    }
  }
  JOINT LeftUpLeg
  {
    OFFSET 10 -10 0
    CHANNELS 6 Xposition Yposition Zposition Zrotation Xrotation Yrotation
    JOINT LeftLeg
    {
      OFFSET 0 -35 0
      CHANNELS 6 Xposition Yposition Zposition Zrotation Xrotation Yrotation
      JOINT LeftFoot
      {
        OFFSET 0 -40 0
        CHANNELS 6 Xposition Yposition Zposition Zrotation Xrotation Yrotation
        End Site
        {
          OFFSET 0 0 15
        }
      }
    }
  }
  JOINT RightUpLeg
  {
    OFFSET -10 -10 0
    CHANNELS 6 Xposition Yposition Zposition Zrotation Xrotation Yrotation
    JOINT RightLeg
    {
      OFFSET 0 -35 0
      CHANNELS 6 Xposition Yposition Zposition Zrotation Xrotation Yrotation
      JOINT RightFoot
      {
        OFFSET 0 -40 0
        CHANNELS 6 Xposition Yposition Zposition Zrotation Xrotation Yrotation
        End Site
        {
          OFFSET 0 0 15
        }
      }
    }
  }
}
MOTION
Frames:	9
Frame Time:	0.0166667
-45.409 84.853 -84.2134 -4.78816 -0.964608 91.8816 0 10 7.10543e-15 2.75937 5.1453 0.278705 0 30 0 -6.1494 -15.5097 -5.5299 1.42109e-14 8 7.10543e-15 7.30769 16.2667 -6.54709 15 30 7.10543e-15 -64.6347 44.0158 -36.042 25 0 0 34.1947 -27.3837 -76.7612 25 0 -7.10543e-15 9.14217e-06 -32.2508 1.71322e-05 -15 30 7.10543e-15 66.8887 39.9196 25.1822 -25 1.42109e-14 -3.55271e-15 -34.3711 -28.0779 77.9116 -25 0 0 3.77344e-06 5.76198 -1.21355e-05 10 -10 7.10543e-15 5.55306 -12.0037 -5.52796 0 -35 7.10543e-15 0.133316 27.2856 -0.513156 0 -40 7.10543e-15 3.83989 -21.0722 10.7146 -10 -10 7.10543e-15 -5.83784 6.07502 -6.59453 0 -35 0 0.00312732 -0.000374878 1.61583e-06 -7.10543e-15 -40 1.42109e-14 -2.60798 -8.14974 -17.5787 
-45.5141 84.8719 -84.2806 -4.85098 -0.750112 91.6825 1.42109e-14 10 7.10543e-15 2.64746 5.25514 0.459738 0 30 0 -6.35789 -15.5101 -5.53018 0 8 -3.55271e-15 7.44146 15.6206 -6.54365 15 30 0 -62.8214 42.4422 -39.5735 25 -1.42109e-14 0 33.8263 -26.0969 -74.6262 25 0 -1.42109e-14 9.47276e-06 -33.1762 1.73108e-05 -15 30 0 64.4416 38.7913 28.0831 -25 -7.10543e-15 -7.10543e-15 -34.1284 -27.1371 76.3525 -25 0 1.42109e-14 3.68344e-06 5.33889 -1.21268e-05 10 -10 0 5.24215 -11.9942 -5.58835 0 -35 -1.42109e-14 0.131443 27.1364 -0.512256 -1.42109e-14 -40 7.10543e-15 3.93548 -20.9941 11.0087 -10 -10 0 -6.15113 5.94535 -6.40018 0 -35 0 0.00312732 -0.000374878 1.61583e-06 -7.10543e-15 -40 0 -2.644 -8.28433 -17.5422 
-45.6527 84.8944 -84.2905 -4.92357 -0.500965 91.4725 0 10 -7.10543e-15 2.30938 5.40853 0.645672 1.42109e-14 30 7.10543e-15 -6.31073 -15.5527 -5.49219 0 8 3.55271e-15 7.47786 15.2601 -6.55807 15 30 0 -60.5924 40.7266 -43.1976 25 1.42109e-14 0 33.3124 -24.5092 -71.9799 25 0 7.10543e-15 9.91641e-06 -34.3881 1.75575e-05 -15 30 7.10543e-15 62.6548 37.5376 30.9044 -25 0 0 -33.8354 -26.1233 74.6701 -25 -7.10543e-15 1.42109e-14 3.74029e-06 5.60621 -1.21322e-05 10 -10 -7.10543e-15 4.98656 -11.9804 -5.48511 0 -35 -7.10543e-15 0.128646 26.9177 -0.511045 0 -40 7.10543e-15 3.90753 -20.9855 10.9359 -10 -10 0 -6.46475 5.77923 -6.19805 -1.42109e-14 -35 0 0.00312732 -0.000374878 1.61583e-06 -7.10543e-15 -40 0 -2.6737 -8.39293 -17.5177 
-45.8047 84.9109 -84.3047 -5.07706 -0.404798 91.3984 0 10 7.10543e-15 2.13196 5.54158 0.618247 0 30 7.10543e-15 -6.06662 -15.6195 -5.39333 1.42109e-14 8 3.55271e-15 7.24851 14.8633 -6.41343 15 30 0 -58.3128 39.1026 -46.4811 25 1.42109e-14 0 32.7491 -23.0233 -69.4819 25 0 2.13163e-14 1.02889e-05 -35.3791 1.77705e-05 -15 30 -7.10543e-15 61.3154 36.1619 33.9448 -25 0 0 -33.4631 -24.9747 72.7577 -25 -1.42109e-14 1.42109e-14 3.81307e-06 5.94811 -1.21395e-05 10 -10 7.10543e-15 4.89272 -12.1821 -5.38258 0 -35 -7.10543e-15 0.126675 26.8011 -0.510317 0 -40 7.10543e-15 3.83064 -20.9671 10.7353 -10 -10 7.10543e-15 -6.59662 5.49158 -6.1437 1.42109e-14 -35 0 0.00312732 -0.000374878 1.61583e-06 -1.42109e-14 -40 0 -2.65701 -8.34412 -17.5094 
-45.971 84.9254 -84.3672 -5.27757 -0.418312 91.4895 0 10 -7.10543e-15 2.19138 5.76002 0.359755 0 30 0 -5.74911 -15.6072 -5.23509 1.42109e-14 8 3.55271e-15 6.8676 13.8113 -6.07351 15 30 0 -56.2264 37.6044 -49.3702 25 1.42109e-14 -7.10543e-15 32.2401 -21.864 -67.5121 25 0 -7.10543e-15 1.06804e-05 -36.3954 1.80001e-05 -15 30 0 60.1391 34.6329 36.9453 -25 0 0 -33.0419 -23.8103 70.8082 -25 7.10543e-15 -2.84217e-14 3.86471e-06 6.1904 -1.2145e-05 10 -10 -7.10543e-15 4.88854 -12.5816 -5.23498 1.42109e-14 -35 0 0.125681 26.7994 -0.510133 -1.42109e-14 -40 0 3.71815 -20.7744 10.5194 -10 -10 -7.10543e-15 -6.62494 5.13712 -6.26066 -7.10543e-15 -35 -1.42109e-14 0.00312732 -0.000374878 1.61583e-06 0 -40 -1.42109e-14 -2.59372 -8.14033 -17.5108 
-46.1461 84.947 -84.4547 -5.50241 -0.399096 91.6032 0 10 0 2.2821 6.10098 0.104855 0 30 -7.10543e-15 -5.43137 -15.5079 -5.01333 0 8 0 6.59459 11.9465 -5.66458 15 30 0 -54.5168 36.2202 -51.9448 25 0 0 31.8497 -21.0203 -66.0642 25 0 0 1.11414e-05 -37.5587 1.82774e-05 -15 30 0 59.203 33.0259 39.4999 -25 0 0 -32.6699 -22.8469 69.1835 -25 1.42109e-14 1.42109e-14 3.92779e-06 6.48609 -1.2152e-05 10 -10 0 4.8443 -13.0305 -4.99914 1.42109e-14 -35 -7.10543e-15 0.124668 26.8094 -0.51004 0 -40 0 3.59473 -20.4538 10.3294 -10 -10 7.10543e-15 -6.71217 4.74911 -6.40311 -1.42109e-14 -35 0 0.00312732 -0.000374878 1.61583e-06 -1.42109e-14 -40 1.42109e-14 -2.5164 -7.88998 -17.5143 
-46.3035 84.9789 -84.5114 -5.80828 -0.347586 91.5574 0 10 0 2.29207 6.41328 0.0586824 0 30 7.10543e-15 -5.16514 -15.4125 -4.74672 0 8 -7.10543e-15 6.58841 9.79743 -5.29146 15 30 0 -53.187 34.9607 -54.1478 25 -1.42109e-14 0 31.5372 -20.3784 -64.9529 25 0 -7.10543e-15 1.15258e-05 -38.5017 1.85142e-05 -15 30 -7.10543e-15 58.6253 31.5253 41.6452 -25 0 0 -32.3617 -22.1425 67.9874 -25 0 0 3.97768e-06 6.71968 -1.21577e-05 10 -10 -7.10543e-15 4.76989 -13.4876 -4.79914 0 -35 0 0.123291 26.7935 -0.509883 0 -40 7.10543e-15 3.53785 -20.2483 10.2669 -10 -10 -7.10543e-15 -6.83776 4.25235 -6.3976 7.10543e-15 -35 0 0.00312732 -0.000374878 1.61583e-06 7.10543e-15 -40 0 -2.44841 -7.67339 -17.5081 
-46.4273 85.0061 -84.523 -6.21056 -0.376243 91.357 -1.42109e-14 10 0 2.31927 6.56718 0.1326 -1.42109e-14 30 7.10543e-15 -4.99519 -15.4188 -4.51516 -1.42109e-14 8 0 6.7861 8.082 -4.97448 15 30 7.10543e-15 -52.1015 33.7604 -55.9445 25 0 7.10543e-15 31.2242 -19.7643 -63.8809 25 2.84217e-14 0 1.17733e-05 -39.0962 1.86693e-05 -15 30 0 58.2647 30.2306 43.7266 -25 0 7.10543e-15 -32.0688 -21.497 66.8839 -25 0 -2.84217e-14 3.9783e-06 6.72259 -1.21578e-05 10 -10 -7.10543e-15 4.79033 -14.0205 -4.70469 0 -35 7.10543e-15 0.122213 26.815 -0.509958 0 -40 0 3.5576 -20.2439 10.3235 -10 -10 -7.10543e-15 -6.8517 3.62774 -6.25219 -1.42109e-14 -35 -1.42109e-14 0.00312732 -0.000374878 1.61583e-06 7.10543e-15 -40 0 -2.38288 -7.46876 -17.4913 
-46.5284 85.0159 -84.5345 -6.59065 -0.51008 91.2034 0 10 0 2.478 6.6437 0.105849 -1.42109e-14 30 7.10543e-15 -4.95387 -15.5427 -4.40547 0 8 -7.10543e-15 7.01705 7.10491 -4.75153 15 30 0 -51.1079 32.4948 -57.5577 25 0 0 30.8083 -18.987 -62.5106 25 0 7.10543e-15 1.20467e-05 -39.7414 1.88429e-05 -15 30 0 57.8283 28.9894 45.8931 -25 0 0 -31.6894 -20.6856 65.4857 -25 7.10543e-15 1.42109e-14 3.97883e-06 6.72509 -1.21578e-05 10 -10 0 4.91751 -14.5921 -4.68386 0 -35 7.10543e-15 0.121997 26.9269 -0.51052 -1.42109e-14 -40 -7.10543e-15 3.58401 -20.2734 10.3826 -10 -10 0 -6.72571 3.05358 -6.15083 0 -35 1.42109e-14 0.00312732 -0.000374878 1.61583e-06 0 -40 1.42109e-14 -2.31462 -7.24966 -17.4853 
